<svg xmlns="http://www.w3.org/2000/svg" width="107.781" height="107.781" viewBox="0 0 107.781 107.781"><defs><style>.a{fill:#fff;}</style></defs><path class="a" d="M53.891,0a53.891,53.891,0,1,0,53.891,53.89A53.951,53.951,0,0,0,53.891,0Zm0,101.557a47.666,47.666,0,1,1,47.666-47.666,47.72,47.72,0,0,1-47.666,47.666Zm0,0"/><path class="a" d="M161.28,103.209a3.112,3.112,0,0,0-4.215-1.268l-35.028,18.835a3.114,3.114,0,0,0-1.268,1.268l-18.828,35.021a3.112,3.112,0,0,0,4.162,4.242h0l.014-.007.038-.021L141.2,142.459a3.1,3.1,0,0,0,1.268-1.267l18.753-34.935c.041-.071.08-.141.116-.215l.025-.048h0a3.1,3.1,0,0,0-.078-2.785Zm-48.971,47.717,11.965-22.254,10.288,10.289Zm26.656-16.364-10.289-10.289,22.252-11.966" transform="translate(-77.72 -77.72)"/></svg>