<svg xmlns="http://www.w3.org/2000/svg" width="71.869" height="119.333" viewBox="0 0 71.869 119.333"><defs><style>.a{fill:#fff;}</style></defs><path class="a" d="M71.868,110.045V9.264A9.275,9.275,0,0,0,62.6,0H9.264A9.275,9.275,0,0,0,0,9.264V110.069a9.275,9.275,0,0,0,9.264,9.264H62.6a9.311,9.311,0,0,0,9.264-9.288ZM5.973,21.477h59.9V89.3H5.973Zm3.291-15.5H62.6A3.293,3.293,0,0,1,65.9,9.264V15.5H5.973V9.264A3.293,3.293,0,0,1,9.264,5.973ZM5.973,110.045v-14.8h59.9v14.8a3.293,3.293,0,0,1-3.291,3.291H9.264a3.293,3.293,0,0,1-3.291-3.291Zm0,0"/><path class="a" d="M97.767,312.449H85.65a3,3,0,0,0,0,6H97.767a3,3,0,0,0,0-6Zm0,0" transform="translate(-55.786 -210.888)"/></svg>