<svg xmlns="http://www.w3.org/2000/svg" width="151.988" height="86.681" viewBox="0 0 151.988 86.681"><defs><style>.a{fill:#020203;}.b{fill:#303031;}.c{fill:#575656;}.d{fill:#717070;}.e{fill:#4a494a;}.f{fill:#5a5a5a;}.g{fill:#6e6e6d;}.h{fill:#f49620;}.i{fill:#bc2f1b;}</style></defs><g transform="translate(73.52)"><path class="a" d="M117.63,48.046,115.315,45.1c-.034-.043-2.649-3.438-7.252-8.464C96.407,23.934,73.6,2.619,51.822,2.619a29.914,29.914,0,0,0-10.6,1.688l-.643-1.694A31.651,31.651,0,0,1,51.822.807C74.3.807,97.541,22.49,109.4,35.416c4.656,5.083,7.321,8.545,7.348,8.578l2.306,2.931Z" transform="translate(-40.583 -0.807)"/></g><g transform="translate(72.021 0)"><path class="b" d="M51.678,1.308c22.246,0,45.436,21.808,56.909,34.315l-.015.014-2.851,2.46C92.864,24.119,65.261-1.895,42.768,4.627L40.761,3.054A30.837,30.837,0,0,1,51.678,1.308Z" transform="translate(-38.94 -0.4)"/><path class="b" d="M106.464,39.762l-.594-.645C94.118,26.341,71.368,4.908,51.044,4.908a25.879,25.879,0,0,0-7.206.995l-.446.13L39.756,3.186l1.5-.572A31.651,31.651,0,0,1,52.493.807c22.475,0,45.719,21.683,57.576,34.609l.587.638-.614.614ZM51.044,3.1c20.672,0,43.447,21.092,55.563,34.148l1.495-1.29C96.268,23.184,73.886,2.62,52.493,2.62a32.043,32.043,0,0,0-9.038,1.163l.328.255A27.772,27.772,0,0,1,51.044,3.1Z" transform="translate(-39.756 -0.807)"/></g><path class="c" d="M97.668,24.855c1.326,1.572,2.054,2.489,2.054,2.489L57.429,60.784c-.087-.859-.219-1.951-.379-3.188Z" transform="translate(46.301 18.71)"/><path class="d" d="M68,63.35c-.889-8.21-1.792-17.587-2.156-24.473-.48-9.158-6.973-18.373-13.35-25.288A104.385,104.385,0,0,0,41.87,3.6C64.361-2.92,91.964,23.094,104.821,37.071c2.181,2.373,3.946,4.411,5.167,5.868L69.37,75.681C69.008,72.435,68.509,68.1,68,63.35Z" transform="translate(33.981 0.625)"/><path class="b" d="M55.717,51.132c-.232-3.027-.627-7.906-1.134-13.409l3.1-1.6c.507,4.746,1.005,9.085,1.368,12.331l-3.321,2.679Z" transform="translate(44.299 27.853)"/><path class="b" d="M55.223,45.607l3.321-2.679c.159,1.237.292,2.33.379,3.188l-3.449,2.737s-.089-1.208-.264-3.246Z" transform="translate(44.807 33.378)"/><path class="e" d="M56.724,47.836s-1.152-1.324-3.058-3.654l2.793.408C56.637,46.628,56.724,47.836,56.724,47.836Z" transform="translate(43.555 34.396)"/><path class="f" d="M70.966,77.6,68.172,77.2A273.268,273.268,0,0,1,50.861,53.583V47s-.277-20.877-14.895-27.2h-.014c-.815-7.469,1.457-13.467,8.88-16.306,0,0,20.165,20.382,22.246,35.145C68.083,45.723,69.071,55.71,69.83,64.2,70.339,69.7,70.734,74.576,70.966,77.6Z" transform="translate(29.05 1.38)"/><path class="g" d="M79.495,54.761,21.843,46.317,52.837,50.5l9.346,1.266V31.147A273.561,273.561,0,0,0,79.495,54.761Z" transform="translate(17.727 23.817)"/><path class="g" d="M48.3,31.513V52.127l-9.346-1.266L47.789,30.7C47.963,30.973,48.124,31.236,48.3,31.513Z" transform="translate(31.613 23.45)"/><path class="g" d="M44.339,30.046v1.995c-.176-.275-.335-.538-.509-.815Z" transform="translate(35.572 22.923)"/><path class="g" d="M44.952,30.489l-.509,1.179c-.467-.712-.918-1.44-1.368-2.168C44.224,30.139,44.952,30.489,44.952,30.489Z" transform="translate(34.959 22.48)"/><path class="f" d="M28.712,26.374C43.272,5.16,70.089,3.5,70.089,3.5c-7.426,2.839-9.7,8.837-8.88,16.306-.641.043-15.665,1.194-25.433,22.377-.583,1.266-1.138,2.46-1.661,3.594-7.6,16.364-9.9,20.5-10.322,21.212L4.676,64.2c1.37-2.313,3.48-5.88,6.188-10.277C15.435,46.479,21.68,36.622,28.712,26.374Z" transform="translate(3.795 1.379)"/><path class="g" d="M36.973,32.557c-3.174-6.056-.9-19.029-.788-19.772a.045.045,0,0,0,.014-.029l.219-.029c1.107,9.042,6.623,20.163,12.973,30.384C46.1,41.307,39.39,37.2,36.973,32.557Z" transform="translate(28.642 8.867)"/><path class="g" d="M35.9,12.5C50.512,18.82,50.791,39.7,50.791,39.7v4.585s-.728-.348-1.877-.989c-6.35-10.221-11.866-21.342-12.973-30.384a4.083,4.083,0,0,1-.058-.408Z" transform="translate(29.122 8.685)"/><path class="g" d="M22.587,34.88C32.355,13.7,47.379,12.546,48.02,12.5c.014.13.029.261.058.408l-.219.029a.045.045,0,0,1-.014.029c-.29.656-5.109,11.094-12.317,17.908-8.516,8.051-14.6,7.6-14.6,7.6C21.45,37.338,22,36.144,22.587,34.88Z" transform="translate(16.983 8.685)"/><path class="h" d="M22.587,39.632,20.926,39.4v-.014Z" transform="translate(16.983 30.502)"/><path class="h" d="M25.582,40.062v.014l-10.393-1.4a.441.441,0,0,0,.071-.13Z" transform="translate(12.327 29.823)"/><path class="g" d="M25.55,26.839V49.565L15.228,48.051C15.65,47.337,17.949,43.2,25.55,26.839Z" transform="translate(12.359 20.32)"/><path class="e" d="M34.877,41.329l1.661.234L94.19,50.007c1.906,2.33,3.058,3.654,3.058,3.654L3.736,39.931s.6-1.047,1.7-2.926l19.116,2.8a.441.441,0,0,1-.071.13Z" transform="translate(3.032 28.571)"/><g transform="translate(37.909 21.652)"><path class="e" d="M47.844,12.759c-.29.656-5.109,11.094-12.317,17.908-8.516,8.051-14.6,7.6-14.6,7.6v4c9.54-4.341,19.6-8.529,27.259-10.75C45.7,25.138,47.736,13.464,47.844,12.759Z" transform="translate(-20.926 -12.759)"/><path class="i" d="M22.034,39.549l.092.011-.518-.074Z" transform="translate(-20.372 8.932)"/><path class="b" d="M62.419,36.852c-.467-.712-.918-1.44-1.368-2.168-3.292-1.806-10-5.911-12.418-10.556a9.613,9.613,0,0,1-.447-1.016c-7.658,2.221-17.719,6.408-27.259,10.75V52.589l1.237.185.518.076,30.9,4.167Z" transform="translate(-20.926 -4.357)"/></g><g transform="translate(0 1.736)"><path class="a" d="M103.465,86.71l-.348-4.672c-.014-.158-.112-1.02-.286-2.4-.089-.875-.221-1.958-.379-3.185l-.292-2.594c-.317-2.824-.694-6.174-1.078-9.755-.77-7.1-1.768-17.11-2.159-24.522-.484-9.206-7.4-18.525-13.11-24.723a103.113,103.113,0,0,0-10.533-9.9L73.549,3.6c-5.145.236-29.56,2.428-43.38,22.58C22.884,36.8,16.455,46.988,12.344,53.661c-4.712,7.687-7.7,12.893-8.031,13.462l-2.743,4.77L0,70.993l2.737-4.761c.333-.58,3.337-5.808,8.062-13.518C14.92,46.02,21.368,35.807,28.674,25.16,43.112,4.1,68.643,2,73.612,1.787l.344-.022.444.2,2.007,1.572A104.531,104.531,0,0,1,87.143,13.629c5.917,6.417,13.078,16.11,13.587,25.855.391,7.37,1.388,17.348,2.152,24.422.382,3.58.759,6.926,1.078,9.746l.29,2.582c.159,1.232.292,2.333.379,3.2.176,1.393.277,2.279.293,2.455l.35,4.687Z" transform="translate(0 -1.765)"/></g><g transform="translate(10.668 1.038)"><path class="b" d="M24.236,25.58C39.64,3.116,67.8,1.951,68.966,1.879c0,0,.388,2.694-.266,2.94,0,0-26.817,1.659-41.377,22.873C20.29,37.94,14.046,47.8,9.475,55.237L6.4,53.112l-.014-.018C11,45.6,17.265,35.741,24.236,25.58Z" transform="translate(-5.484 -0.975)"/><path class="b" d="M9.88,56.546a.892.892,0,0,1-.514-.161L6.293,54.26a1.23,1.23,0,0,1-.139-.118.907.907,0,0,1-.13-1.116C10.143,46.335,16.59,36.121,23.9,25.474,38.534,4.123,64.231,1.661,69.233,1.384a.981.981,0,0,1,1.034.77c.491,3.413-.514,3.792-.844,3.917a.885.885,0,0,1-.264.056c-.261.018-26.552,1.895-40.685,22.482-5.851,8.529-11.85,17.783-17.824,27.507a.909.909,0,0,1-.585.413A1.065,1.065,0,0,1,9.88,56.546ZM8.009,53.255l1.6,1.1C15.434,44.9,21.275,35.9,26.983,27.585,40.53,7.844,64.795,4.73,68.556,4.362a6.812,6.812,0,0,0,0-1.118c-6.5.495-29.7,3.614-43.172,23.252C18.36,36.74,12.13,46.581,8.009,53.255Z" transform="translate(-5.889 -1.38)"/></g><g transform="translate(72.962 1.033)"><path class="b" d="M65.788,65.514c-.759-8.485-1.746-18.475-2.752-25.551C60.955,25.2,40.79,4.818,40.79,4.818a12.154,12.154,0,0,1,.266-2.94A173.279,173.279,0,0,1,53.383,14.15c6.379,6.915,12.87,16.13,13.35,25.288C67.1,46.323,68,55.7,68.888,63.91Z" transform="translate(-39.869 -0.971)"/><path class="b" d="M66.195,66.826a.906.906,0,0,1-.9-.826C64.3,54.944,63.38,46.362,62.546,40.5,60.53,26.2,40.753,6.063,40.552,5.861a.9.9,0,0,1-.261-.594,12.882,12.882,0,0,1,.275-3.12.9.9,0,0,1,1.466-.565,173.935,173.935,0,0,1,12.42,12.362C60.369,20.36,67.53,30.054,68.039,39.8c.391,7.368,1.388,17.348,2.152,24.422a.906.906,0,0,1-.486.9l-3.1,1.6A.867.867,0,0,1,66.195,66.826ZM42.088,4.842c2.438,2.5,20.254,21.234,22.252,35.4.8,5.656,1.69,13.812,2.636,24.254l1.351-.7c-.759-7.053-1.712-16.706-2.092-23.9-.484-9.206-7.4-18.525-13.11-24.723-3.739-4.065-8.333-8.692-11-11.11A5.772,5.772,0,0,0,42.088,4.842Z" transform="translate(-40.275 -1.377)"/></g></svg>