<svg xmlns="http://www.w3.org/2000/svg" width="199.776" height="77.82" viewBox="0 0 199.776 77.82"><defs><style>.a{fill:#6bb193;}</style></defs><path class="a" d="M102.868,29.247a13.441,13.441,0,0,1-5.315-5.007,13.814,13.814,0,0,1-1.933-7.268A13.8,13.8,0,0,1,97.553,9.7,13.424,13.424,0,0,1,102.868,4.7,16,16,0,0,1,110.5,2.9a16.383,16.383,0,0,1,6.688,1.315A12.859,12.859,0,0,1,122.138,8l-4.871,4.408a8.017,8.017,0,0,0-6.379-3.17,7.884,7.884,0,0,0-3.924.966,6.706,6.706,0,0,0-2.667,2.725,8.379,8.379,0,0,0-.947,4.04,8.374,8.374,0,0,0,.947,4.04,6.706,6.706,0,0,0,2.667,2.725,7.866,7.866,0,0,0,3.924.967,8.011,8.011,0,0,0,6.379-3.17l4.871,4.408a12.854,12.854,0,0,1-4.947,3.788,16.413,16.413,0,0,1-6.688,1.315A16,16,0,0,1,102.868,29.247Z" transform="translate(-95.62 0.577)"/><path class="a" d="M116.616,26.637a10.356,10.356,0,0,1-5.761-9.471A10.325,10.325,0,0,1,116.6,7.753a13.191,13.191,0,0,1,6.089-1.373,13.328,13.328,0,0,1,6.109,1.373,10.283,10.283,0,0,1,4.214,3.826,10.455,10.455,0,0,1,1.509,5.585,10.536,10.536,0,0,1-1.509,5.605,10.361,10.361,0,0,1-4.214,3.866,14.027,14.027,0,0,1-12.177,0Zm9.239-5.779a5.222,5.222,0,0,0,1.237-3.692,5.094,5.094,0,0,0-1.237-3.634,4.479,4.479,0,0,0-6.341,0,5.086,5.086,0,0,0-1.237,3.634,5.214,5.214,0,0,0,1.237,3.692,4.436,4.436,0,0,0,6.341,0Z" transform="translate(-83.256 3.401)"/><path class="a" d="M126.581,7.669a3.6,3.6,0,0,1-1.237-2.784A3.6,3.6,0,0,1,126.581,2.1,4.642,4.642,0,0,1,129.828.981a4.809,4.809,0,0,1,3.246,1.063,3.435,3.435,0,0,1,1.237,2.725,3.753,3.753,0,0,1-1.237,2.88,4.6,4.6,0,0,1-3.246,1.139A4.645,4.645,0,0,1,126.581,7.669Zm-.426,3.44H133.5V32.062h-7.344V11.11Z" transform="translate(-71.496 -0.981)"/><path class="a" d="M152.4,8.7q2.378,2.321,2.377,7V27.68H147.43V16.893q0-4.291-3.44-4.292a3.929,3.929,0,0,0-3.034,1.237,5.313,5.313,0,0,0-1.139,3.71V27.678h-7.344V6.729h7V9.009a8.312,8.312,0,0,1,2.938-1.953,9.954,9.954,0,0,1,3.712-.678A8.619,8.619,0,0,1,152.4,8.7Z" transform="translate(-65.711 3.4)"/><path class="a" d="M152.567,26.636a10.3,10.3,0,0,1-5.8-9.471,10.187,10.187,0,0,1,5.8-9.411,13.728,13.728,0,0,1,6.225-1.373,11.884,11.884,0,0,1,6.147,1.527,8.452,8.452,0,0,1,3.672,4.234l-5.683,2.9a4.506,4.506,0,0,0-4.174-2.822,4.389,4.389,0,0,0-3.266,1.315,4.95,4.95,0,0,0-1.3,3.634,5.074,5.074,0,0,0,1.3,3.692,4.362,4.362,0,0,0,3.266,1.333,4.5,4.5,0,0,0,4.174-2.822l5.683,2.9a8.448,8.448,0,0,1-3.672,4.232,11.884,11.884,0,0,1-6.147,1.527A13.6,13.6,0,0,1,152.567,26.636Z" transform="translate(-54.109 3.402)"/><path class="a" d="M165.268,26.637a10.356,10.356,0,0,1-5.761-9.471,10.325,10.325,0,0,1,5.741-9.413,13.191,13.191,0,0,1,6.089-1.373,13.328,13.328,0,0,1,6.109,1.373,10.283,10.283,0,0,1,4.214,3.826,10.455,10.455,0,0,1,1.509,5.585,10.536,10.536,0,0,1-1.509,5.605,10.361,10.361,0,0,1-4.214,3.866,14.027,14.027,0,0,1-12.177,0Zm9.239-5.779a5.222,5.222,0,0,0,1.237-3.692,5.094,5.094,0,0,0-1.237-3.634,4.479,4.479,0,0,0-6.341,0,5.086,5.086,0,0,0-1.237,3.634,5.214,5.214,0,0,0,1.237,3.692,4.436,4.436,0,0,0,6.341,0Z" transform="translate(-43.77 3.401)"/><path class="a" d="M175.233,7.669A3.6,3.6,0,0,1,174,4.885,3.6,3.6,0,0,1,175.233,2.1,4.642,4.642,0,0,1,178.48.981a4.809,4.809,0,0,1,3.246,1.063,3.435,3.435,0,0,1,1.237,2.725,3.753,3.753,0,0,1-1.237,2.88,5.23,5.23,0,0,1-6.493.02Zm-.426,3.44h7.344V32.062h-7.344Z" transform="translate(-32.011 -0.981)"/><path class="a" d="M201.051,8.7q2.378,2.321,2.377,7V27.68h-7.344V16.893q0-4.291-3.44-4.292a3.929,3.929,0,0,0-3.034,1.237,5.313,5.313,0,0,0-1.139,3.71V27.678h-7.344V6.729h7V9.009a8.312,8.312,0,0,1,2.938-1.953,9.954,9.954,0,0,1,3.712-.678A8.622,8.622,0,0,1,201.051,8.7Z" transform="translate(-26.225 3.4)"/><path class="a" d="M199.155,27.428a13.64,13.64,0,0,1-4.1-1.565l2.2-5.025a12.449,12.449,0,0,0,3.4,1.411,15.218,15.218,0,0,0,3.9.522A6.228,6.228,0,0,0,207.1,22.4a1.155,1.155,0,0,0,.754-1.063c0-.464-.3-.793-.908-.986a19.048,19.048,0,0,0-2.88-.56,28.5,28.5,0,0,1-4.272-.812,6.589,6.589,0,0,1-3.034-1.855,5.3,5.3,0,0,1-1.277-3.788,5.733,5.733,0,0,1,1.2-3.576,7.939,7.939,0,0,1,3.5-2.475,15,15,0,0,1,5.509-.908,22.251,22.251,0,0,1,4.524.464,13.022,13.022,0,0,1,3.75,1.313l-2.2,4.987a12.216,12.216,0,0,0-6.031-1.547,6.021,6.021,0,0,0-2.551.406,1.208,1.208,0,0,0-.812,1.063q0,.734.889,1.024a20.6,20.6,0,0,0,2.938.6,32.676,32.676,0,0,1,4.292.889,6.551,6.551,0,0,1,2.957,1.837,5.229,5.229,0,0,1,1.255,3.73,5.684,5.684,0,0,1-1.2,3.538,7.8,7.8,0,0,1-3.538,2.455,15.867,15.867,0,0,1-5.625.889A22.734,22.734,0,0,1,199.155,27.428Z" transform="translate(-14.918 3.402)"/><path class="a" d="M96.985,33.276a3.75,3.75,0,0,1,0-5.567,4.642,4.642,0,0,1,3.246-1.121,4.809,4.809,0,0,1,3.246,1.063,3.435,3.435,0,0,1,1.237,2.725,3.753,3.753,0,0,1-1.237,2.88,4.6,4.6,0,0,1-3.246,1.139A4.65,4.65,0,0,1,96.985,33.276Zm-.426,3.44H103.9V57.669H96.56Z" transform="translate(-95.516 19.801)"/><path class="a" d="M122.8,34.307q2.378,2.321,2.377,7V53.287h-7.344V42.5q0-4.291-3.44-4.292a3.929,3.929,0,0,0-3.034,1.237,5.313,5.313,0,0,0-1.139,3.71V53.285h-7.344V32.336h7v2.281a8.312,8.312,0,0,1,2.938-1.953,9.955,9.955,0,0,1,3.712-.678A8.622,8.622,0,0,1,122.8,34.307Z" transform="translate(-89.731 24.182)"/><path class="a" d="M120.907,53.035a13.64,13.64,0,0,1-4.1-1.565l2.2-5.025a12.449,12.449,0,0,0,3.4,1.411,15.218,15.218,0,0,0,3.9.522,6.228,6.228,0,0,0,2.533-.368,1.155,1.155,0,0,0,.754-1.063c0-.464-.3-.793-.908-.985a19.047,19.047,0,0,0-2.88-.56,28.5,28.5,0,0,1-4.272-.812,6.589,6.589,0,0,1-3.034-1.855,5.3,5.3,0,0,1-1.277-3.788,5.733,5.733,0,0,1,1.2-3.576,7.939,7.939,0,0,1,3.5-2.475,15,15,0,0,1,5.509-.908,22.251,22.251,0,0,1,4.524.464,13.022,13.022,0,0,1,3.75,1.313l-2.2,4.987a12.216,12.216,0,0,0-6.031-1.547,6.021,6.021,0,0,0-2.551.406,1.208,1.208,0,0,0-.812,1.063q0,.734.889,1.024a20.6,20.6,0,0,0,2.938.6,32.676,32.676,0,0,1,4.292.889,6.551,6.551,0,0,1,2.957,1.837,5.229,5.229,0,0,1,1.255,3.73,5.684,5.684,0,0,1-1.2,3.538,7.805,7.805,0,0,1-3.538,2.455,15.867,15.867,0,0,1-5.625.889A22.734,22.734,0,0,1,120.907,53.035Z" transform="translate(-78.423 24.184)"/><path class="a" d="M134.434,52.243a10.356,10.356,0,0,1-5.761-9.471,10.325,10.325,0,0,1,5.741-9.413,13.191,13.191,0,0,1,6.089-1.373,13.328,13.328,0,0,1,6.109,1.373,10.283,10.283,0,0,1,4.214,3.826,10.609,10.609,0,0,1-4.214,15.056,13.166,13.166,0,0,1-6.109,1.391A13.007,13.007,0,0,1,134.434,52.243Zm9.239-5.777a5.222,5.222,0,0,0,1.237-3.692,5.094,5.094,0,0,0-1.237-3.634,4.479,4.479,0,0,0-6.341,0,5.086,5.086,0,0,0-1.237,3.634,5.214,5.214,0,0,0,1.237,3.692,4.436,4.436,0,0,0,6.341,0Z" transform="translate(-68.795 24.182)"/><path class="a" d="M143.61,27.911h7.344V56.594H143.61Z" transform="translate(-56.672 20.875)"/><path class="a" d="M151.078,33.276a3.75,3.75,0,0,1,0-5.567,4.642,4.642,0,0,1,3.246-1.121,4.809,4.809,0,0,1,3.246,1.063,3.435,3.435,0,0,1,1.237,2.725,3.753,3.753,0,0,1-1.237,2.88,4.6,4.6,0,0,1-3.246,1.139A4.65,4.65,0,0,1,151.078,33.276Zm-.426,3.44H158V57.669h-7.344Z" transform="translate(-51.615 19.801)"/><path class="a" d="M172.412,54.377a7.412,7.412,0,0,1-2.261.889,12.538,12.538,0,0,1-2.841.308,9.039,9.039,0,0,1-6.3-2.009q-2.2-2.011-2.2-5.993V40.536h-3.054V35.047h3.054V29.6h7.346v5.451h4.793v5.489h-4.793v6.958a2.463,2.463,0,0,0,.6,1.759,2.1,2.1,0,0,0,1.605.638,3.885,3.885,0,0,0,2.241-.658Z" transform="translate(-46.819 22.243)"/><path class="a" d="M188.054,44.668H172.822a4.253,4.253,0,0,0,1.8,2.493,6,6,0,0,0,3.344.87,7.21,7.21,0,0,0,2.609-.426,7.7,7.7,0,0,0,2.223-1.391l3.866,4.02q-3.054,3.4-8.929,3.4a14.251,14.251,0,0,1-6.455-1.391,10.25,10.25,0,0,1-5.837-9.471,10.342,10.342,0,0,1,5.605-9.395,13.193,13.193,0,0,1,11.6-.1,9.864,9.864,0,0,1,4.04,3.75,11,11,0,0,1,1.489,5.817C188.17,42.9,188.13,43.509,188.054,44.668Zm-13.9-6.495a4.358,4.358,0,0,0-1.449,2.629h8.581a4.376,4.376,0,0,0-1.449-2.629,4.664,4.664,0,0,0-5.683,0Z" transform="translate(-38.955 24.181)"/></svg>